<svg xmlns="http://www.w3.org/2000/svg" viewBox="0 0 237 237">
  <!-- Square canvas; logo centered (206×237 artboard) -->
  <defs>
    <style>
      .fd { fill: #213d81; }
      .fm { fill: #2c89c9; }
      .fw { fill: #ffffff; }
      .sd { stroke: #213d81; fill: none; stroke-linecap: round; stroke-linejoin: round; }
    </style>
    <clipPath id="fc">
      <path d="M103 18.5 L189.6 68.5 L189.6 168.5 L103 218.5 L16.4 168.5 L16.4 68.5 Z" />
    </clipPath>
  </defs>
  <rect width="237" height="237" fill="#ffffff" />
  <g transform="translate(15.5 0)">
    <path class="fw sd" stroke-width="12" d="M103 18.5 L189.6 68.5 L189.6 168.5 L103 218.5 L16.4 168.5 L16.4 68.5 Z" />
    <g clip-path="url(#fc)">
      <ellipse class="fm" stroke="#213d81" stroke-width="3" cx="103" cy="94" rx="14" ry="18" />
      <rect class="fd" x="86" y="108" width="34" height="14" rx="3" />
      <ellipse class="fm" stroke="#213d81" stroke-width="3" cx="103" cy="152" rx="46" ry="52" />
      <g class="sd" stroke-width="9">
        <path d="M118 82 C142 48 168 28 192 20" />
        <path d="M125 118 C158 112 182 118 198 128" />
        <path d="M118 168 C142 198 168 218 192 228" />
      </g>
      <g transform="translate(206 0) scale(-1 1)">
        <g class="sd" stroke-width="9">
          <path d="M118 82 C142 48 168 28 192 20" />
          <path d="M125 118 C158 112 182 118 198 128" />
          <path d="M118 168 C142 198 168 218 192 228" />
        </g>
      </g>
    </g>
  </g>
</svg>
