<?xml version="1.0" encoding="UTF-8"?>
<!-- Generator: Adobe Illustrator 16.0.4, SVG Export Plug-In . SVG Version: 6.00 Build 0)  -->
<!DOCTYPE svg PUBLIC "-//W3C//DTD SVG 1.1//EN" "http://www.w3.org/Graphics/SVG/1.1/DTD/svg11.dtd">
<svg version="1.1" id="svg7203" inkscape:version="0.46" inkscape:output_extension="org.inkscape.output.svg.inkscape" sodipodi:version="0.32" sodipodi:docname="KS-MO county map.svg" xmlns:sodipodi="http://sodipodi.sourceforge.net/DTD/sodipodi-0.dtd" xmlns:inkscape="http://www.inkscape.org/namespaces/inkscape" xmlns:rdf="http://www.w3.org/1999/02/22-rdf-syntax-ns#" xmlns:cc="http://creativecommons.org/ns#" xmlns:dc="http://purl.org/dc/elements/1.1/" xmlns:svg="http://www.w3.org/2000/svg" xmlns="http://www.w3.org/2000/svg" xmlns:xlink="http://www.w3.org/1999/xlink" x="0px" y="0px" width="331.453px" height="148.212px" viewBox="-91.55 -26.062 331.453 148.212" enable-background="new -91.55 -26.062 331.453 148.212" xml:space="preserve">
<defs>
	
	
		<inkscape:perspective id="perspective7211" inkscape:persp3d-origin="372.04724 : 350.78739 : 1" inkscape:vp_y="0 : 1000 : 0" inkscape:vp_z="744.09448 : 526.18109 : 1" inkscape:vp_x="0 : 526.18109 : 1" sodipodi:type="inkscape:persp3d">
		</inkscape:perspective>
</defs>
<sodipodi:namedview id="base" inkscape:window-y="-4" inkscape:current-layer="layer1" inkscape:window-height="1005" inkscape:pageshadow="2" inkscape:document-units="px" inkscape:window-width="1280" inkscape:pageopacity="0.0" inkscape:window-x="1276" objecttolerance="10" showgrid="false" inkscape:zoom="5.6" gridtolerance="10000" inkscape:cx="89.238235" bordercolor="#666666" pagecolor="#ffffff" inkscape:cy="42.735832" guidetolerance="10" borderopacity="1.0">
	</sodipodi:namedview>
<g id="layer1" transform="translate(-263.22851,-197.1837)" inkscape:label="Layer 1" inkscape:groupmode="layer">
	<g id="g6319" transform="translate(66.264394,280.62758)">
		<g id="g6209" transform="translate(-3.5753364,-19.66435)">
			
				<path id="path5522" inkscape:label="Doniphan, KS" fill="#FFFFFF" stroke="#000000" stroke-width="0.25" stroke-linejoin="bevel" d="     M279.877-67.944h0.777l0.012,0.303l0.16,0.229l2.973,2.691l1.207,0.775l0.605,0.225l0.473,0.18l0.09,0.033l0.113-0.01l0.938-0.09     l0.184-0.068l0.145-0.135l0.02-0.023l0.846-0.957l2.061,2.594l0.205,0.957l0.189,0.889l-0.516,1.152l-0.521,0.092l-1.779,1.574     l-0.1,0.113l-0.848,1.238l-0.293,0.418l-6.861-0.902L279.877-67.944"/>
			
				<path id="path5524" inkscape:label="Brown, KS" fill="#FFFFFF" stroke="#000000" stroke-width="0.25" stroke-linejoin="bevel" d="     M268.879-67.901l10.998-0.043l0.078,11.277l-5.531,0.033l-5.545,0.025V-67.901"/>
			
				<path id="path5526" inkscape:label="Stanton, KS" fill="#FFFFFF" stroke="#000000" stroke-width="0.25" stroke-linejoin="bevel" d="     M110.85,0.756l13.006,0.865l-0.621,11.283l-0.791-0.047l-12.314-0.779l0.541-8.271L110.85,0.756"/>
			
				<path id="path5528" inkscape:label="Morton, KS" fill="#FFFFFF" stroke="#000000" stroke-width="0.25" stroke-linejoin="bevel" d="     M110.129,12.078l12.314,0.779l-0.709,12.756l-12.068-0.666l-0.359-0.023L110.129,12.078"/>
			
				<path id="path5530" inkscape:label="Stevens, KS" fill="#FFFFFF" stroke="#000000" stroke-width="0.25" stroke-linejoin="bevel" d="     M122.444,12.857l0.791,0.047l11.064,0.639l0.551,0.033l-0.641,12.656l-12.475-0.619L122.444,12.857"/>
			
				<path id="path5532" inkscape:label="Grant, KS" fill="#FFFFFF" stroke="#000000" stroke-width="0.25" stroke-linejoin="bevel" d="     M123.856,1.621l11.053,0.607l-0.609,11.314l-11.064-0.639L123.856,1.621"/>
			
				<path id="path5534" inkscape:label="Haskell, KS" fill="#FFFFFF" stroke="#000000" stroke-width="0.25" stroke-linejoin="bevel" d="     M145.971,2.806l-0.438,8.482l-0.137,2.84l-10.547-0.553l-0.551-0.033l0.609-11.314L145.971,2.806"/>
			
				<path id="path5536" inkscape:label="Seward, KS" fill="#FFFFFF" stroke="#000000" stroke-width="0.25" stroke-linejoin="bevel" d="     M145.397,14.129l-0.121,12.598l-7.969-0.338l-3.098-0.156l0.641-12.656L145.397,14.129"/>
			
				<path id="path5538" inkscape:label="Meade, KS" fill="#FFFFFF" stroke="#000000" stroke-width="0.25" stroke-linejoin="bevel" d="     M156.62,11.785l2.764,0.148l-0.215,15.365l-13.893-0.572l0.121-12.598l0.137-2.84L156.62,11.785"/>
			<path id="path5540" inkscape:label="Gray, KS" fill="#FFFFFF" stroke="#000000" stroke-width="0.25" stroke-linejoin="bevel" d="     M156.969-2.465l-0.35,14.25l-11.086-0.496l0.438-8.482l-0.178-3.033l0.291-5.633l11.033,0.576L156.969-2.465"/>
			<path id="path5542" inkscape:label="Ford, KS" fill="#FFFFFF" stroke="#000000" stroke-width="0.25" stroke-linejoin="bevel" d="     M156.969-2.465l16.588,0.715l0.045,5.795l-0.236,8.672l-13.982-0.783l-2.764-0.148L156.969-2.465"/>
			
				<path id="path5544" inkscape:label="Clark, KS" fill="#FFFFFF" stroke="#000000" stroke-width="0.25" stroke-linejoin="bevel" d="     M173.366,12.717l0.211,2.832l-0.404,12.395L161.385,27.4l-2.217-0.102l0.215-15.365L173.366,12.717"/>
			
				<path id="path5546" inkscape:label="Comanche, KS" fill="#FFFFFF" stroke="#000000" stroke-width="0.25" stroke-linejoin="bevel" d="     M187.1,15.908l-0.121,12.508l-11.633-0.395l-2.174-0.078l0.404-12.395L187.1,15.908"/>
			
				<path id="path5548" inkscape:label="Kiowa, KS" fill="#FFFFFF" stroke="#000000" stroke-width="0.25" stroke-linejoin="bevel" d="     M173.602,4.045l13.803,0.543l-0.238,8.525l-0.066,2.795l-13.523-0.359l-0.211-2.832L173.602,4.045"/>
			
				<path id="path5550" inkscape:label="Edwards, KS" fill="#FFFFFF" stroke="#000000" stroke-width="0.25" stroke-linejoin="bevel" d="     M173.78-7.414l5.51,0.193l-0.09,2.828l8.27,0.279l0.037,5.703l-0.102,2.998l-13.803-0.543l-0.045-5.795L173.78-7.414"/>
			
				<path id="path5552" inkscape:label="Pratt, KS" fill="#FFFFFF" stroke="#000000" stroke-width="0.25" stroke-linejoin="bevel" d="     M201.184,2.006l0.113,2.988l-0.225,8.492l-13.906-0.373l0.238-8.525l0.102-2.998L201.184,2.006"/>
			
				<path id="path5554" inkscape:label="Barber, KS" fill="#FFFFFF" stroke="#000000" stroke-width="0.25" stroke-linejoin="bevel" d="     M187.166,13.113l13.906,0.373l2.85,2.908l-0.238,12.545l-5.057-0.162l-11.648-0.361l0.121-12.508L187.166,13.113"/>
			
				<path id="path5556" inkscape:label="Harper, KS" fill="#FFFFFF" stroke="#000000" stroke-width="0.25" stroke-linejoin="bevel" d="     M203.922,16.394l13.803,0.227l-0.113,12.596l-7.922-0.146l-6.006-0.131L203.922,16.394"/>
			
				<path id="path5558" inkscape:label="Kingman, KS" fill="#FFFFFF" stroke="#000000" stroke-width="0.25" stroke-linejoin="bevel" d="     M201.297,4.994l16.621,0.332l-0.148,8.441l-0.045,2.854l-13.803-0.227l-2.85-2.908L201.297,4.994"/>
			<path id="path5560" inkscape:label="Reno, KS" fill="#FFFFFF" stroke="#000000" stroke-width="0.25" stroke-linejoin="bevel" d="     M215.315-9.014l5.543,0.102L220.7-0.436l-2.781,5.762l-16.621-0.332l-0.113-2.988l0.281-11.314L215.315-9.014"/>
			
				<path id="path5562" inkscape:label="Harvey, KS" fill="#FFFFFF" stroke="#000000" stroke-width="0.25" stroke-linejoin="bevel" d="     M229.162-8.776l5.461,2.873l-0.041,5.676L220.7-0.436l0.158-8.477L229.162-8.776"/>
			
				<path id="path5564" inkscape:label="Sedgwick, KS" fill="#FFFFFF" stroke="#000000" stroke-width="0.25" stroke-linejoin="bevel" d="     M220.7-0.436l13.883,0.209l-0.193,14.211l-16.619-0.217l0.148-8.441L220.7-0.436"/>
			
				<path id="path5566" inkscape:label="Sumner, KS" fill="#FFFFFF" stroke="#000000" stroke-width="0.25" stroke-linejoin="bevel" d="     M217.77,13.767l16.619,0.217l-0.045,15.482l-8.043-0.098l-8.689-0.152l0.113-12.596L217.77,13.767"/>
			
				<path id="path5568" inkscape:label="Cowley, KS" fill="#FFFFFF" stroke="#000000" stroke-width="0.25" stroke-linejoin="bevel" d="     M234.389,13.984l15.934,0.113v5.645l-0.08,9.855l-5.736-0.029l-10.162-0.102L234.389,13.984"/>
			
				<path id="path5570" inkscape:label="Butler, KS" fill="#FFFFFF" stroke="#000000" stroke-width="0.25" stroke-linejoin="bevel" d="     M242.493-5.76l8.021,0.035l-0.156,15.57l-0.035,4.252l-15.934-0.113l0.193-14.211l0.041-5.676L242.493-5.76"/>
			
				<path id="path5572" inkscape:label="Chautauqua, KS" fill="#FFFFFF" stroke="#000000" stroke-width="0.25" stroke-linejoin="bevel" d="     M250.323,19.742l14.268,0.148l0.008,9.756h-0.934l-13.422-0.049L250.323,19.742"/>
			<path id="path5574" inkscape:label="Elk, KS" fill="#FFFFFF" stroke="#000000" stroke-width="0.25" stroke-linejoin="bevel" d="     M264.664,9.994v7.053l-0.074,2.844l-14.268-0.148v-5.645l0.035-4.252L264.664,9.994"/>
			
				<path id="path5576" inkscape:label="Greenwood, KS" fill="#FFFFFF" stroke="#000000" stroke-width="0.25" stroke-linejoin="bevel" d="     M264.713-8.449L264.7-4.192l-0.035,9.936v4.25l-14.307-0.148l0.156-15.57l4.182-2.793L264.713-8.449"/>
			
				<path id="path5578" inkscape:label="Montgomery, KS" fill="#FFFFFF" stroke="#000000" stroke-width="0.25" stroke-linejoin="bevel" d="     M264.664,17.047l11.078,0.057h0.115l0.1,3.811l-0.078,6.646l0.01,2.037l-6.762,0.037l-4.529,0.012l-0.008-9.756L264.664,17.047"/>
			
				<path id="path5580" inkscape:label="Wilson, KS" fill="#FFFFFF" stroke="#000000" stroke-width="0.25" stroke-linejoin="bevel" d="     M264.664,5.744l11.02,0.025l0.059,11.334l-11.078-0.057V5.744"/>
			
				<path id="path5582" inkscape:label="Woodson, KS" fill="#FFFFFF" stroke="#000000" stroke-width="0.25" stroke-linejoin="bevel" d="     M264.7-4.192l11.102,0.033l-0.117,9.928l-11.02-0.025L264.7-4.192"/>
			
				<path id="path5584" inkscape:label="Labette, KS" fill="#FFFFFF" stroke="#000000" stroke-width="0.25" stroke-linejoin="bevel" d="     M275.858,17.103l11.018-0.078l0.338,1.43l0.156,11.055l-8.551,0.078l-2.93,0.01l-0.01-2.037l0.078-6.646L275.858,17.103"/>
			
				<path id="path5586" inkscape:label="Neosho, KS" fill="#FFFFFF" stroke="#000000" stroke-width="0.25" stroke-linejoin="bevel" d="     M286.764,5.703l0.023,1.877l0.088,9.445l-11.018,0.078h-0.115l-0.059-11.334L286.764,5.703"/>
			
				<path id="path5588" inkscape:label="Allen, KS" fill="#FFFFFF" stroke="#000000" stroke-width="0.25" stroke-linejoin="bevel" d="     M286.928-4.225l-0.164,9.928l-11.08,0.066l0.117-9.928L286.928-4.225"/>
			
				<path id="path5590" inkscape:label="Cherokee, KS" fill="#FFFFFF" stroke="#000000" stroke-width="0.25" stroke-linejoin="bevel" d="     M287.213,18.455l11.648-0.09l0.148,11.055l-9.961,0.08l-1.68,0.01L287.213,18.455"/>
			
				<path id="path5592" inkscape:label="Crawford, KS" fill="#FFFFFF" stroke="#000000" stroke-width="0.25" stroke-linejoin="bevel" d="     M298.694,7.482l0.16,10.035l0.008,0.848l-11.648,0.09l-0.338-1.43l-0.088-9.445L298.694,7.482"/>
			
				<path id="path5594" inkscape:label="Bourbon, KS" fill="#FFFFFF" stroke="#000000" stroke-width="0.25" stroke-linejoin="bevel" d="     M286.928-4.225l11.691-0.113l0.074,11.82L286.787,7.58l-0.023-1.877L286.928-4.225"/>
			
				<path id="path5596" inkscape:label="Hamilton, KS" fill="#FFFFFF" stroke="#000000" stroke-width="0.25" stroke-linejoin="bevel" d="     M111.864-16.248l11.969,0.713l0.629,0.029l-0.529,9.422l0.09,4.744l-0.166,2.961L110.85,0.756L111.864-16.248"/>
			
				<path id="path5598" inkscape:label="Greeley, KS" fill="#FFFFFF" stroke="#000000" stroke-width="0.25" stroke-linejoin="bevel" d="     M112.754-30.354l11.91,0.662l-0.832,14.156l-11.969-0.713l0.711-11.438L112.754-30.354"/>
			
				<path id="path5600" inkscape:label="Wallace, KS" fill="#FFFFFF" stroke="#000000" stroke-width="0.25" stroke-linejoin="bevel" d="     M127.707-43.686l-0.971,14.096l-2.072-0.102l-11.91-0.662l0.689-11.334l0.156-2.799L127.707-43.686"/>
			
				<path id="path5602" inkscape:label="Sherman, KS" fill="#FFFFFF" stroke="#000000" stroke-width="0.25" stroke-linejoin="bevel" d="     M114.436-58.606l15.672,0.949l0.607,0.033l-0.865,14.051l-2.143-0.113L113.6-44.487L114.436-58.606"/>
			
				<path id="path5604" inkscape:label="Cheyenne, KS" fill="#FFFFFF" stroke="#000000" stroke-width="0.25" stroke-linejoin="bevel" d="     M115.289-72.713l15.686,0.973l-0.867,14.084l-15.672-0.949l0.01-0.188L115.289-72.713"/>
			
				<path id="path5606" inkscape:label="Stafford, KS" fill="#FFFFFF" stroke="#000000" stroke-width="0.25" stroke-linejoin="bevel" d="     M190.491-12.487l10.875,0.314l0.1,2.863l-0.281,11.314L187.506,1.59l-0.037-5.703l2.74,0.09L190.491-12.487"/>
			
				<path id="path5608" inkscape:label="Kearny, KS" fill="#FFFFFF" stroke="#000000" stroke-width="0.25" stroke-linejoin="bevel" d="     M124.461-15.506l10.469,0.553l0.553,0.025l-0.26,5.418l-0.508,8.719l0.193,3.02l-11.053-0.607l0.166-2.961l-0.09-4.744     L124.461-15.506"/>
			
				<path id="path5610" inkscape:label="Finney, KS" fill="#FFFFFF" stroke="#000000" stroke-width="0.25" stroke-linejoin="bevel" d="     M145.995-14.381l11.053,0.59l0.428,0.023l-0.357,8.484L146.084-5.86l-0.291,5.633l0.178,3.033l-11.062-0.578l-0.193-3.02     l0.508-8.719l0.26-5.418L145.995-14.381"/>
			
				<path id="path5612" inkscape:label="Hodgeman, KS" fill="#FFFFFF" stroke="#000000" stroke-width="0.25" stroke-linejoin="bevel" d="     M173.621-13.106l0.158,5.691l-0.223,5.664l-16.588-0.715l0.148-2.818l0.357-8.484L173.621-13.106"/>
			
				<path id="path5614" inkscape:label="Pawnee, KS" fill="#FFFFFF" stroke="#000000" stroke-width="0.25" stroke-linejoin="bevel" d="     M173.715-15.946l13.857,0.521l2.918,2.938l-0.281,8.463l-2.74-0.09l-8.27-0.279l0.09-2.828l-5.51-0.193l-0.158-5.691     L173.715-15.946"/>
			
				<path id="path5616" inkscape:label="Coffey, KS" fill="#FFFFFF" stroke="#000000" stroke-width="0.25" stroke-linejoin="bevel" d="     M276.01-17.037v1.432l0.051,4.258h-0.24l-0.02,7.189L264.7-4.192l0.014-4.258L264.924-17L276.01-17.037"/>
			
				<path id="path5618" inkscape:label="Anderson, KS" fill="#FFFFFF" stroke="#000000" stroke-width="0.25" stroke-linejoin="bevel" d="     M276.01-15.606l11.113-0.068l0.055,4.258l-0.25,4.348v2.844l-11.127,0.066l0.02-7.189h0.24L276.01-15.606"/>
			<path id="path5620" inkscape:label="Linn, KS" fill="#2A00E6" stroke="#000000" stroke-width="0.25" stroke-miterlimit="10" d="     M298.469-15.774l0.135,10.678l0.016,0.758l-11.691,0.113v-2.844l0.25-4.348l-0.055-4.258L298.469-15.774"/>
			
				<path id="path5622" inkscape:label="Franklin, KS" fill="#FFFFFF" stroke="#000000" stroke-width="0.25" stroke-miterlimit="10" d="     M276.139-26.918l11.096-0.092l-0.111,11.336l-11.113,0.068v-1.432L276.139-26.918"/>
			
				<path id="path5624" inkscape:label="Osage, KS" fill="#FFFFFF" stroke="#000000" stroke-width="0.25" stroke-linejoin="bevel" d="     M276.123-31.19l0.016,4.271l-0.129,9.881L264.924-17l0.104-9.895l-0.01-4.258L276.123-31.19"/>
			<path id="path5626" inkscape:label="Lyon, KS" fill="#FFFFFF" stroke="#000000" stroke-width="0.25" stroke-linejoin="bevel" d="     M254.875-26.932l10.152,0.037L264.924-17l-0.211,8.551l-10.018-0.068l0.121-11.338L254.875-26.932"/>
			
				<path id="path5628" inkscape:label="Chase, KS" fill="#FFFFFF" stroke="#000000" stroke-width="0.25" stroke-linejoin="bevel" d="     M243.155-19.955l11.662,0.1l-0.121,11.338l-4.182,2.793l-8.021-0.035l0.045-5.338l0.111-3.213l0.461,0.014L243.155-19.955"/>
			
				<path id="path5630" inkscape:label="Morris, KS" fill="#FFFFFF" stroke="#000000" stroke-width="0.25" stroke-linejoin="bevel" d="     M251.178-31.19l3.697,4.258l-0.059,7.076l-11.662-0.1l-2.748-2.852l1.084-8.459L251.178-31.19"/>
			
				<path id="path5632" inkscape:label="Marion, KS" fill="#FFFFFF" stroke="#000000" stroke-width="0.25" stroke-linejoin="bevel" d="     M240.407-22.807l2.748,2.852l-0.045,5.658l-0.461-0.014l-0.111,3.213l-0.045,5.338l-7.869-0.143l-5.461-2.873l0.201-14.166     L240.407-22.807"/>
			
				<path id="path5634" inkscape:label="McPherson, KS" fill="#FFFFFF" stroke="#000000" stroke-width="0.25" stroke-linejoin="bevel" d="     M229.364-22.942l-0.201,14.166l-8.305-0.137l-5.543-0.102l0.223-14.174L229.364-22.942"/>
			<path id="path5636" inkscape:label="Rice, KS" fill="#FFFFFF" stroke="#000000" stroke-width="0.25" stroke-linejoin="bevel" d="     M201.569-20.655l13.926,0.293l-0.18,11.348l-13.85-0.295l-0.1-2.863L201.569-20.655"/>
			
				<path id="path5638" inkscape:label="Saline, KS" fill="#FFFFFF" stroke="#000000" stroke-width="0.25" stroke-linejoin="bevel" d="     M229.536-34.266l-0.172,11.324l-13.826-0.246l0.07-8.498l0.055-2.828L229.536-34.266"/>
			
				<path id="path5640" inkscape:label="Ellsworth, KS" fill="#FFFFFF" stroke="#000000" stroke-width="0.25" stroke-linejoin="bevel" d="     M201.756-32l13.852,0.314l-0.07,8.498l-0.043,2.826l-13.926-0.293l0.012-5.701L201.756-32"/>
			
				<path id="path5642" inkscape:label="Barton, KS" fill="#FFFFFF" stroke="#000000" stroke-width="0.25" stroke-linejoin="bevel" d="     M201.58-26.356l-0.012,5.701l-0.203,8.482l-10.875-0.314l-2.918-2.938l0.35-11.314L201.58-26.356"/>
			<path id="path5644" inkscape:label="Rush, KS" fill="#FFFFFF" stroke="#000000" stroke-width="0.25" stroke-linejoin="bevel" d="     M174.129-27.211l13.543,0.459l0.25,0.014l-0.35,11.314l-13.857-0.521L174.129-27.211"/>
			<path id="path5646" inkscape:label="Ness, KS" fill="#FFFFFF" stroke="#000000" stroke-width="0.25" stroke-linejoin="bevel" d="     M157.6-27.944l2.332,0.123l13.859,0.596l0.338,0.014l-0.414,11.266l-0.094,2.84l-16.146-0.662l-0.428-0.023L157.6-27.944"/>
			<path id="path5648" inkscape:label="Lane, KS" fill="#FFFFFF" stroke="#000000" stroke-width="0.25" stroke-linejoin="bevel" d="     M146.602-28.531l10.998,0.588l-0.553,14.152l-11.053-0.59L146.602-28.531"/>
			
				<path id="path5650" inkscape:label="Scott, KS" fill="#FFFFFF" stroke="#000000" stroke-width="0.25" stroke-linejoin="bevel" d="     M135.618-29.115l7.73,0.426l3.254,0.158l-0.607,14.15l-10.512-0.547l-0.553-0.025L135.618-29.115"/>
			
				<path id="path5652" inkscape:label="Wichita, KS" fill="#FFFFFF" stroke="#000000" stroke-width="0.25" stroke-linejoin="bevel" d="     M126.737-29.59l8.881,0.475l-0.688,14.162l-10.469-0.553l-0.629-0.029l0.832-14.156L126.737-29.59"/>
			
				<path id="path5654" inkscape:label="Logan, KS" fill="#FFFFFF" stroke="#000000" stroke-width="0.25" stroke-linejoin="bevel" d="     M129.85-43.573l3.695,0.203l3.771,0.271l6.908,0.359l-0.877,14.049l-7.73-0.426l-8.881-0.475l0.971-14.096L129.85-43.573"/>
			<path id="path5656" inkscape:label="Gove, KS" fill="#FFFFFF" stroke="#000000" stroke-width="0.25" stroke-linejoin="bevel" d="     M146.479-42.625l13.812,0.688l0.408,0.01l-0.768,14.107l-2.332-0.123l-10.998-0.588l-3.254-0.158l0.877-14.049L146.479-42.625"/>
			
				<path id="path5658" inkscape:label="Trego, KS" fill="#FFFFFF" stroke="#000000" stroke-width="0.25" stroke-linejoin="bevel" d="     M160.7-41.928l13.467,0.541l0.336,0.012l-0.711,14.15l-13.859-0.596L160.7-41.928"/>
			
				<path id="path5660" inkscape:label="Ellis, KS" fill="#FFFFFF" stroke="#000000" stroke-width="0.25" stroke-linejoin="bevel" d="     M174.502-41.375L188-40.926l0.26,0.014l-0.588,14.16l-13.543-0.459l-0.338-0.014L174.502-41.375"/>
			
				<path id="path5662" inkscape:label="Russell, KS" fill="#FFFFFF" stroke="#000000" stroke-width="0.25" stroke-linejoin="bevel" d="     M188.26-40.912l13.588,0.404L201.756-32l-0.176,5.645l-13.658-0.383l-0.25-0.014L188.26-40.912"/>
			
				<path id="path5664" inkscape:label="Lincoln, KS" fill="#FFFFFF" stroke="#000000" stroke-width="0.25" stroke-linejoin="bevel" d="     M215.809-42.998l-0.146,8.484l-0.055,2.828L201.756-32l0.092-8.508l0.08-2.83L215.809-42.998"/>
			
				<path id="path5666" inkscape:label="Ottawa, KS" fill="#FFFFFF" stroke="#000000" stroke-width="0.25" stroke-linejoin="bevel" d="     M215.877-45.826l13.871,0.248l-0.125,5.656l-0.088,5.656l-13.873-0.248l0.146-8.484L215.877-45.826"/>
			
				<path id="path5668" inkscape:label="Dickinson, KS" fill="#FFFFFF" stroke="#000000" stroke-width="0.25" stroke-linejoin="bevel" d="     M239.754-39.809l1.736,8.543l-1.084,8.459l-11.043-0.135l0.172-11.324l0.088-5.656L239.754-39.809"/>
			
				<path id="path5670" inkscape:label="Geary, KS" fill="#FFFFFF" stroke="#000000" stroke-width="0.25" stroke-linejoin="bevel" d="     M239.754-39.809l0.078-2.861l2.76,0.064l-0.066,4.252l6.736,0.547l1.961,0.023v0.949l-0.045,5.645l-9.688-0.076L239.754-39.809"/>
			
				<path id="path5672" inkscape:label="Wabaunsee, KS" fill="#FFFFFF" stroke="#000000" stroke-width="0.25" stroke-linejoin="bevel" d="     M262.705-39.492l2.312,8.34l0.01,4.258l-10.152-0.037l-3.697-4.258l0.045-5.645l2.807-4.182l0.158,0.146l0.629,0.396l0.26,0.064     l1.309-1.34l1.68-0.404l2.963,0.236l0.588,0.238l0.359,0.461l0.697,1.467L262.705-39.492"/>
			
				<path id="path5674" inkscape:label="Shawnee, KS" fill="#FFFFFF" stroke="#000000" stroke-width="0.25" stroke-linejoin="bevel" d="     M262.795-42.424l11.064-0.01l2.244,5.193l0.02,6.051l-11.105,0.037l-2.312-8.34L262.795-42.424"/>
			
				<path id="path5676" inkscape:label="Douglas, KS" fill="#FFFFFF" stroke="#000000" stroke-width="0.25" stroke-linejoin="bevel" d="     M283.889-36.901l3.279,1.98l0.066,7.91l-11.096,0.092l-0.016-4.271l-0.02-6.051l1.084-0.395l0.502-0.059l0.35,0.059l0.498,0.213     l0.316,0.361l0.789,0.475l0.441,0.113l0.355-0.023L283.889-36.901"/>
			
				<path id="path5678" inkscape:label="Johnson, KS" fill="#2A00E6" stroke="#000000" stroke-width="0.25" stroke-miterlimit="10" d="     M290.83-35.246l0.664-2.049l0.156-0.137l0.33-0.111l0.383-0.014l2.129,0.543l3.818-0.057l0.082,6.4l0.012,3.537l-11.17,0.123     l-0.066-7.91L290.83-35.246"/>
			
				<path id="path5680" inkscape:label="Leavenworth, KS" fill="#2A00E6" stroke="#000000" stroke-width="0.25" stroke-miterlimit="10" d="     M283.971-49.094l5.215-0.049l4.438,7.033h-2.658l-0.17,2.391l0.035,4.473l-3.662,0.326l-3.279-1.98l-0.047-2.75l0.172-3.268     L283.971-49.094"/>
			
				<path id="path5682" inkscape:label="Jefferson, KS" fill="#FFFFFF" stroke="#000000" stroke-width="0.25" stroke-linejoin="bevel" d="     M274.299-49.035l9.672-0.059l0.043,6.176l-0.172,3.268l0.047,2.75l-3.449,0.404l-0.355,0.023l-0.441-0.113l-0.789-0.475     l-0.316-0.361l-0.498-0.213l-0.35-0.059l-0.502,0.059l-1.084,0.395l-2.244-5.193L274.299-49.035"/>
			
				<path id="path5684" inkscape:label="Atchison, KS" fill="#FFFFFF" stroke="#000000" stroke-width="0.25" stroke-linejoin="bevel" d="     M285.84-52.823l3.346,3.68l-5.215,0.049l-9.672,0.059l0.125-7.598l5.531-0.033l6.861,0.902L285.84-52.823"/>
			
				<path id="path5686" inkscape:label="Jackson, KS" fill="#FFFFFF" stroke="#000000" stroke-width="0.25" stroke-linejoin="bevel" d="     M274.299-49.035l-0.439,6.602l-11.064,0.01v-11.357l6.084-2.826l5.545-0.025L274.299-49.035"/>
			
				<path id="path5688" inkscape:label="Pottawatomie, KS" fill="#FFFFFF" stroke="#000000" stroke-width="0.25" stroke-linejoin="bevel" d="     M262.795-42.424l-0.09,2.932l-0.033-0.258l-0.697-1.467l-0.359-0.461l-0.588-0.238l-2.963-0.236l-1.68,0.404l-1.309,1.34     l-0.26-0.064l-0.629-0.396l-0.158-0.146l-1.779-0.531l-1.646-0.721l-2.332-2.16l-1.227-1.918l-1.219-2.24l0.012-1.297     l0.305-0.508l3.176-3.447l8.463,0.047l5.014,0.01V-42.424"/>
			
				<path id="path5690" inkscape:label="Riley, KS" fill="#FFFFFF" stroke="#000000" stroke-width="0.25" stroke-linejoin="bevel" d="     M239.832-42.67l0.18-11.246l3.764,0.035l5.543,0.043l-3.176,3.447l-0.305,0.508l-0.012,1.297l1.219,2.24l1.227,1.918l2.332,2.16     l1.646,0.721l1.779,0.531l-2.807,4.182v-0.949l-1.961-0.023l-6.736-0.547l0.066-4.252L239.832-42.67"/>
			<path id="path5692" inkscape:label="Clay, KS" fill="#FFFFFF" stroke="#000000" stroke-width="0.25" stroke-linejoin="bevel" d="     M229.748-45.578l0.146-8.475l10.117,0.137l-0.18,11.246l-0.078,2.861l-10.131-0.113L229.748-45.578"/>
			
				<path id="path5694" inkscape:label="Cloud, KS" fill="#FFFFFF" stroke="#000000" stroke-width="0.25" stroke-linejoin="bevel" d="     M215.991-54.299l0.066-2.83l13.871,0.248l-0.033,2.828l-0.146,8.475l-13.871-0.248L215.991-54.299"/>
			
				<path id="path5696" inkscape:label="Mitchell, KS" fill="#FFFFFF" stroke="#000000" stroke-width="0.25" stroke-linejoin="bevel" d="     M215.991-54.299l-0.113,8.473l-0.068,2.828l-13.881-0.34l0.363-11.297L215.991-54.299"/>
			
				<path id="path5698" inkscape:label="Osborne, KS" fill="#FFFFFF" stroke="#000000" stroke-width="0.25" stroke-linejoin="bevel" d="     M201.928-43.338l-0.08,2.83l-13.588-0.404L188-40.926l0.146-4.719l0.193-3.754l0.203-5.643l13.295,0.393l0.453,0.014     L201.928-43.338"/>
			
				<path id="path5700" inkscape:label="Rooks, KS" fill="#FFFFFF" stroke="#000000" stroke-width="0.25" stroke-linejoin="bevel" d="     M174.772-55.508l13.24,0.443l0.531,0.023l-0.203,5.643l-0.193,3.754L188-40.926l-13.498-0.449l-0.336-0.012L174.772-55.508"/>
			
				<path id="path5702" inkscape:label="Graham, KS" fill="#FFFFFF" stroke="#000000" stroke-width="0.25" stroke-linejoin="bevel" d="     M160.291-41.938l0.688-14.131l13.16,0.533l0.633,0.027l-0.605,14.121L160.7-41.928L160.291-41.938"/>
			
				<path id="path5704" inkscape:label="Sheridan, KS" fill="#FFFFFF" stroke="#000000" stroke-width="0.25" stroke-linejoin="bevel" d="     M147.2-56.748l13.32,0.67l0.459,0.01l-0.688,14.131l-13.812-0.688L147.2-56.748"/>
			
				<path id="path5706" inkscape:label="Rawlins, KS" fill="#FFFFFF" stroke="#000000" stroke-width="0.25" stroke-linejoin="bevel" d="     M130.975-71.74l2.129,0.113l13.857,0.742l0.488,0.035l-0.758,14.082l-15.977-0.855l-0.607-0.033L130.975-71.74"/>
			
				<path id="path5708" inkscape:label="Decatur, KS" fill="#FFFFFF" stroke="#000000" stroke-width="0.25" stroke-linejoin="bevel" d="     M147.45-70.85l13.363,0.639l0.381,0.025l-0.674,14.107l-13.32-0.67l-0.508-0.02L147.45-70.85"/>
			
				<path id="path5710" inkscape:label="Phillips, KS" fill="#FFFFFF" stroke="#000000" stroke-width="0.25" stroke-linejoin="bevel" d="     M185.692-69.252l2.748,0.078l-0.428,14.109l-13.24-0.443l-0.633-0.027l0.588-14.111L185.692-69.252"/>
			
				<path id="path5712" inkscape:label="Norton, KS" fill="#FFFFFF" stroke="#000000" stroke-width="0.25" stroke-linejoin="bevel" d="     M174.67-69.647h0.057l-0.588,14.111l-13.16-0.533l-0.459-0.01l0.674-14.107L174.67-69.647"/>
			
				<path id="path5714" inkscape:label="Smith, KS" fill="#FFFFFF" stroke="#000000" stroke-width="0.25" stroke-linejoin="bevel" d="     M188.44-69.174l8.35,0.262l5.443,0.146l-0.395,14.117l-13.295-0.393l-0.531-0.023L188.44-69.174"/>
			
				<path id="path5716" inkscape:label="Jewell, KS" fill="#FFFFFF" stroke="#000000" stroke-width="0.25" stroke-linejoin="bevel" d="     M207.887-68.633l8.395,0.201l-0.225,11.303l-0.066,2.83l-13.699-0.336l-0.453-0.014l0.395-14.117L207.887-68.633"/>
			
				<path id="path5718" inkscape:label="Republic, KS" fill="#FFFFFF" stroke="#000000" stroke-width="0.25" stroke-linejoin="bevel" d="     M218.987-68.371l11.098,0.178l-0.156,11.312l-13.871-0.248l0.225-11.303L218.987-68.371"/>
			
				<path id="path5720" inkscape:label="Washington, KS" fill="#FFFFFF" stroke="#000000" stroke-width="0.25" stroke-linejoin="bevel" d="     M230.084-68.194l11.123,0.146l2.715,0.033l-0.146,14.133l-3.764-0.035l-10.117-0.137l0.033-2.828L230.084-68.194"/>
			
				<path id="path5722" inkscape:label="Marshall, KS" fill="#FFFFFF" stroke="#000000" stroke-width="0.25" stroke-linejoin="bevel" d="     M252.307-67.944l5.508,0.033l-0.033,14.119l-8.463-0.047l-5.543-0.043l0.146-14.133L252.307-67.944"/>
			
				<path id="path5724" inkscape:label="Nemaha, KS" fill="#FFFFFF" stroke="#000000" stroke-width="0.25" stroke-linejoin="bevel" d="     M263.414-67.901h5.465v11.293l-6.084,2.826l-5.014-0.01l0.033-14.119L263.414-67.901"/>
			
				<path id="path5726" inkscape:label="Thomas, KS" fill="#FFFFFF" stroke="#000000" stroke-width="0.25" stroke-linejoin="bevel" d="     M129.67-43.617l0.865-14.051l15.977,0.854l0.508,0.02l-0.719,14.125l-2.256-0.113l-6.908-0.361l-3.771-0.27L129.67-43.617"/>
			<path id="path5728" inkscape:label="Miami, KS" fill="#2A00E6" stroke="#000000" stroke-width="0.25" stroke-miterlimit="10" d="     M298.45-27.194l0.037,8.475l0.029,2.885l-11.342,0.102l0.109-11.336L298.45-27.194"/>
		</g>
		
			<path id="path6317" inkscape:label="Wyandotte, KS" fill="#2A00E6" stroke="#000000" stroke-width="0.25" stroke-miterlimit="10" d="    M294.876-60.543l-0.113,1.512l0.033,2.252l-3.82,0.059l-2.129-0.543l-0.381,0.012l-0.328,0.113l-0.158,0.135l-0.666,2.049    l-0.035-4.473l0.172-2.389h2.658L294.876-60.543"/>
	</g>
	<g id="g7949" transform="translate(-50.357143,-81.25)">
		
			<path id="path7719" inkscape:label="New Madrid, MO" fill="#FFFFFF" stroke="#000000" stroke-width="0.25" stroke-linejoin="bevel" d="    M538.291,371.215l4.375-0.621l5.451,7.348l-1.994,4.473l-1.746,0.172l0.252-0.475l0.041-0.08l0.031-0.123l0.082-0.318l0.021-0.086    v-0.137l-0.01-0.057v-0.014l-0.078-0.352l-0.158-0.371l-0.018-0.031l-0.164-0.258l-0.033-0.023l-0.057-0.043l-0.068-0.047    l-0.393-0.111l-0.721-0.113l-0.475,0.066l-0.158,0.098l-0.295,0.396l-0.043,0.059l-0.031,0.121l-0.035,0.146l-0.027,0.111    l0.027,0.104l0.023,0.137l0.012,0.021l0.279,0.598l0.033,0.035l0.574,0.82l0.205,5.238l-1.352-2.078l-0.51-0.215l-1.869,0.336    l-1.895,0.727l-3.951,0.252h-1.242l-0.443-7.795l6.631-0.375l-0.596-7.512L538.291,371.215"/>
		
			<path id="path7721" inkscape:label="Pemiscot, MO" fill="#FFFFFF" stroke="#000000" stroke-width="0.25" stroke-linejoin="bevel" d="    M543.195,387.899l-1.84,5.051l-2.275,6.164l-5.848,0.439l-0.855-12.633h1.242l3.951-0.252l1.895-0.727l1.869-0.336l0.51,0.215    L543.195,387.899"/>
		
			<path id="path7723" inkscape:label="Atchison, MO" fill="#FFFFFF" stroke="#000000" stroke-width="0.25" stroke-linejoin="bevel" d="    M382.551,255.496l9.531,0.098l4.17,0.037l0.047,3.219h0.584l0.031,3.068l-0.041,4l-9.082-0.035l0.023-0.584v-0.045l0.008-0.059    l-0.062-0.168l-1.705-1.656l-1.588-3.99l-0.135-0.572l0.281-0.262l0.529-0.947l-0.912-0.809l-0.318,0.688L382.551,255.496"/>
		<path id="path7725" inkscape:label="Holt, MO" fill="#FFFFFF" stroke="#000000" stroke-width="0.25" stroke-linejoin="bevel" d="    M396.873,265.918l2.316,0.008l0.523,1.004l-0.07,0.123l-0.121,0.994l0.328,1.627l0.143,0.244l0.295,0.234l1.293,7.447    l-0.846,0.959l-0.02,0.021l-0.143,0.135l-0.184,0.068l-0.938,0.09l-0.115,0.01l-0.088-0.033l-0.473-0.178l-0.605-0.227    l-1.207-0.775l-2.973-2.691l-0.16-0.229l-0.012-0.303l-6.027-8.475v-0.09L396.873,265.918"/>
		<path id="path7727" inkscape:label="Platte, MO" fill="#2A00E6" stroke="#000000" stroke-width="0.25" stroke-miterlimit="10" d="    M399.004,289.568l12.377-0.113l0.059,2.479l0.115,9.621l-4.768-1.273l-4.438-7.033L399.004,289.568"/>
		
			<path id="path7729" inkscape:label="Buchanan, MO" fill="#FFFFFF" stroke="#000000" stroke-width="0.25" stroke-linejoin="bevel" d="    M411.217,280.113l0.043,2.355l0.121,6.986l-12.377,0.113l0.977-2.941l0.293-0.416l0.848-1.238l0.1-0.115l1.779-1.574l0.521-0.092    l0.516-1.152l-0.191-0.889l-0.203-0.957L411.217,280.113"/>
		
			<path id="path7731" inkscape:label="Andrew, MO" fill="#FFFFFF" stroke="#000000" stroke-width="0.25" stroke-linejoin="bevel" d="    M410.99,270.152l0.055,2.83l0.172,7.131l-7.574,0.08l-2.062-2.594l-1.293-7.447H410.99"/>
		
			<path id="path7733" inkscape:label="Nodaway, MO" fill="#FFFFFF" stroke="#000000" stroke-width="0.25" stroke-linejoin="bevel" d="    M403.261,255.676l6.885,0.035l0.898,5.98l-0.055,8.461h-10.703l-0.295-0.234l-0.143-0.244l-0.328-1.627l0.121-0.994l0.07-0.123    l-0.523-1.004l-2.316-0.008l0.041-4l-0.031-3.068h-0.584l-0.047-3.219L403.261,255.676"/>
		<path id="path7735" inkscape:label="Worth, NO" fill="#FFFFFF" stroke="#000000" stroke-width="0.25" stroke-linejoin="bevel" d="    M414.054,255.664l5.816-0.139l0.549,6.088l-9.375,0.078l-0.898-5.98L414.054,255.664"/>
		
			<path id="path7737" inkscape:label="Gentry, MO" fill="#FFFFFF" stroke="#000000" stroke-width="0.25" stroke-linejoin="bevel" d="    M411.045,261.692l9.375-0.078l0.102,8.061v3.295l-9.477,0.014l-0.055-2.83L411.045,261.692"/>
		
			<path id="path7739" inkscape:label="DeKalb, MO" fill="#FFFFFF" stroke="#000000" stroke-width="0.25" stroke-linejoin="bevel" d="    M420.521,272.969l0.475,7.977l0.021,1.402l-9.758,0.121l-0.043-2.355l-0.172-7.131L420.521,272.969"/>
		
			<path id="path7741" inkscape:label="Clinton, MO" fill="#2A00E6" stroke="#000000" stroke-width="0.25" stroke-miterlimit="10" d="    M421.017,282.348l0.07,7.107v2.355l-9.648,0.123l-0.059-2.479l-0.121-6.986L421.017,282.348"/>
		<path id="path7743" inkscape:label="Clay, MO" fill="#2A00E6" stroke="#000000" stroke-width="0.25" stroke-miterlimit="10" d="    M411.439,291.934l9.648-0.123l0.098,8.045l-0.723-0.742l-0.133-0.09l-0.246-0.09l-0.859-0.014l-0.289,0.145l-0.146,0.186    l-0.189,0.367l-0.129,0.566l-0.328,0.482l-0.73,0.754l-2.502,1.24l-3.471,0.408l0.115-1.514L411.439,291.934"/>
		
			<path id="path7745" inkscape:label="Caldwell, MO" fill="#2A00E6" stroke="#000000" stroke-width="0.25" stroke-miterlimit="10" d="    M420.996,280.945l2.771,0.047l5-0.121l3.225-0.016l0.146,5.625l0.047,2.828l-11.098,0.146l-0.07-7.107L420.996,280.945"/>
		
			<path id="path7747" inkscape:label="Daviess, MO" fill="#FFFFFF" stroke="#000000" stroke-width="0.25" stroke-linejoin="bevel" d="    M431.611,269.545l0.18,5.635l0.201,5.676l-3.225,0.016l-5,0.121l-2.771-0.047l-0.475-7.977v-3.295L431.611,269.545"/>
		
			<path id="path7749" inkscape:label="Harrison, MO" fill="#FFFFFF" stroke="#000000" stroke-width="0.25" stroke-linejoin="bevel" d="    M431.013,255.113l0.504,10.176l0.094,4.256l-11.09,0.129l-0.102-8.061l-0.549-6.088l5.271-0.166L431.013,255.113"/>
		
			<path id="path7751" inkscape:label="Mercer, MO" fill="#FFFFFF" stroke="#000000" stroke-width="0.25" stroke-linejoin="bevel" d="    M436.299,254.895l4.449-0.121l0.359,6.4l0.094,3.787l-9.684,0.328l-0.504-10.176L436.299,254.895"/>
		
			<path id="path7753" inkscape:label="Grundy, MO" fill="#FFFFFF" stroke="#000000" stroke-width="0.25" stroke-linejoin="bevel" d="    M441.201,264.961l0.336,7.57l0.055,2.125l-9.801,0.523l-0.18-5.635l-0.094-4.256L441.201,264.961"/>
		
			<path id="path7755" inkscape:label="Livingston, MO" fill="#FFFFFF" stroke="#000000" stroke-width="0.25" stroke-linejoin="bevel" d="    M441.592,274.656l0.047,2.854l0.125,5.725l2.41-0.066l-0.195,2.869l-11.84,0.443l-0.146-5.625l-0.201-5.676L441.592,274.656"/>
		
			<path id="path7757" inkscape:label="Carroll, MO" fill="#FFFFFF" stroke="#000000" stroke-width="0.25" stroke-linejoin="bevel" d="    M432.138,286.481l11.84-0.443l4.508,7.408l-1.025,0.088l-1.055,0.408l-2.268,2.027l-1.41,2.367l-0.268,0.166l-0.99,0.248    l-0.338-0.057l-0.156-0.146l-1.627-1.891l-2.645,1.77l-1.66-0.205l-2.59,1.396l-0.27-10.309L432.138,286.481"/>
		<path id="path7759" inkscape:label="Ray, MO" fill="#2A00E6" stroke="#000000" stroke-width="0.25" stroke-miterlimit="10" d="    M432.185,289.309l0.27,10.309l-1.824-0.223l-3.473,0.504l-1.371,1.105l0.062,0.125l0.049,0.35l-0.533,0.451l-0.268,0.18    l-0.338,0.057l-0.352-0.035l-0.508-0.26l-2.715-2.016l-0.098-8.045v-2.355L432.185,289.309"/>
		
			<path id="path7761" inkscape:label="Lafayette, MO" fill="#2A00E6" stroke="#000000" stroke-width="0.25" stroke-miterlimit="10" d="    M432.455,299.617l2.59-1.396l1.66,0.205l2.645-1.77l-0.18,11.379v0.475l-8.414-0.104l-0.016,0.949l-6.926-0.125l0.086-7.359    l0.508,0.26l0.352,0.035l0.338-0.057l0.268-0.18l0.533-0.451l-0.049-0.35l-0.062-0.125l1.371-1.105l3.473-0.504L432.455,299.617"/>
		
			<path id="path7763" inkscape:label="Jackson, MO" fill="#2A00E6" stroke="#000000" stroke-width="0.25" stroke-miterlimit="10" d="    M423.9,301.871l-0.086,7.359l-0.07,2.738l-12.189-0.248l-0.08-6.4l-0.035-2.252l3.471-0.408l2.502-1.24l0.73-0.754l0.328-0.482    l0.129-0.566l0.189-0.367l0.146-0.186l0.289-0.145l0.859,0.014l0.246,0.09l0.133,0.09l0.723,0.742L423.9,301.871"/>
		
			<path id="path7765" inkscape:label="Johnson, MO" fill="#FFFFFF" stroke="#000000" stroke-width="0.25" stroke-linejoin="bevel" d="    M439.17,308.51l-0.035,12.104l-13.848-0.039l-1.543-8.605l0.07-2.738l6.926,0.125l0.016-0.949L439.17,308.51"/>
		<path id="path7767" inkscape:label="Henry, MO" fill="#FFFFFF" stroke="#000000" stroke-width="0.25" stroke-linejoin="bevel" d="    M439.134,320.613v1.418l-0.008,9.928l-13.238,0.088l-0.557-7.562l-0.045-3.91L439.134,320.613"/>
		<path id="path7769" inkscape:label="Cass, MO" fill="#2A00E6" stroke="#000000" stroke-width="0.25" stroke-miterlimit="10" d="    M411.554,311.721l12.189,0.248l1.543,8.605l0.045,3.91l-3.607,0.023l-1.406-0.145l-1.453-0.553l-7.264-0.078l-0.037-8.475    L411.554,311.721"/>
		
			<path id="path7771" inkscape:label="St. Clair, MO" fill="#FFFFFF" stroke="#000000" stroke-width="0.25" stroke-linejoin="bevel" d="    M425.888,332.047l13.238-0.088l0.609,4.35l-0.068,5.18h-0.645l-0.801,1.41l-0.033,1.422l-1.398-0.016l-4.629-0.066l0.033-1.881    l-6.5-0.125l0.1-4.416L425.888,332.047"/>
		<path id="path7773" inkscape:label="Bates, MO" fill="#2A00E6" stroke="#000000" stroke-width="0.25" stroke-miterlimit="10" d="    M411.601,323.733l7.264,0.078l1.453,0.553l1.406,0.145l3.607-0.023l0.557,7.562l-0.094,5.77l-1.902-0.664l-1.691,0.141l-1,0.152    l-9.434-0.152l-0.135-10.676L411.601,323.733"/>
		<path id="path7775" inkscape:label="Cedar, MO" fill="#FFFFFF" stroke="#000000" stroke-width="0.25" stroke-linejoin="bevel" d="    M425.695,342.233l6.5,0.125l-0.033,1.881l4.629,0.066l0.523,8.328l-11.65-0.021v-1.895L425.695,342.233"/>
		
			<path id="path7777" inkscape:label="Vernon, MO" fill="#FFFFFF" stroke="#000000" stroke-width="0.25" stroke-linejoin="bevel" d="    M425.795,337.817l-0.1,4.416l-0.031,8.484l-13.797-0.209l-0.01-0.637l-0.078-11.818l-0.012-0.76l9.434,0.152l1-0.152l1.691-0.141    L425.795,337.817"/>
		<path id="path7779" inkscape:label="Dade, MO" fill="#FFFFFF" stroke="#000000" stroke-width="0.25" stroke-linejoin="bevel" d="    M425.664,352.611l11.65,0.021l-0.016,4.723v4.729l-10.861-0.01l-0.799-1.914L425.664,352.611"/>
		
			<path id="path7781" inkscape:label="Barton, MO" fill="#FFFFFF" stroke="#000000" stroke-width="0.25" stroke-linejoin="bevel" d="    M425.664,350.717v1.895l-0.025,7.549l-13.621-0.25l-0.15-9.402L425.664,350.717"/>
		
			<path id="path7783" inkscape:label="Jasper, MO" fill="#FFFFFF" stroke="#000000" stroke-width="0.25" stroke-linejoin="bevel" d="    M425.638,360.16l0.799,1.914l-0.01,7.867l-14.279-0.035l-0.123-9.15l-0.008-0.846L425.638,360.16"/>
		
			<path id="path7785" inkscape:label="Newton, MO" fill="#FFFFFF" stroke="#000000" stroke-width="0.25" stroke-linejoin="bevel" d="    M412.148,369.906l14.279,0.035l-0.059,9.746l-14.094-0.363L412.148,369.906"/>
		
			<path id="path7787" inkscape:label="McDonald, MO" fill="#FFFFFF" stroke="#000000" stroke-width="0.25" stroke-linejoin="bevel" d="    M426.369,379.688l-0.043,8.1l-13.918,0.225l-0.078-5.473l-0.055-3.215L426.369,379.688"/>
		
			<path id="path7789" inkscape:label="Lawrence, MO" fill="#FFFFFF" stroke="#000000" stroke-width="0.25" stroke-linejoin="bevel" d="    M437.299,362.084l0.586,5.965l0.045,3.322l0.045,2.367l-11.568-0.023l0.021-3.773l0.01-7.867L437.299,362.084"/>
		<path id="path7791" inkscape:label="Barry, MO" fill="#FFFFFF" stroke="#000000" stroke-width="0.25" stroke-linejoin="bevel" d="    M426.406,373.715l11.568,0.023l0.035,3.326h1.004l-0.01,10.43l-7.258,0.182l-5.42,0.111L426.406,373.715"/>
		<path id="path7793" inkscape:label="Polk, MO" fill="#FFFFFF" stroke="#000000" stroke-width="0.25" stroke-linejoin="bevel" d="    M438.189,344.32l9.77,0.551l0.498,12.516l-11.158-0.031l0.016-4.723l-0.523-8.328L438.189,344.32"/>
		<path id="path7795" inkscape:label="Stone, MO" fill="#FFFFFF" stroke="#000000" stroke-width="0.25" stroke-linejoin="bevel" d="    M437.929,371.371l6.975-0.078l0.047,5.688l0.969-0.008l0.01,10.354l-6.926,0.168l0.01-10.43h-1.004l-0.035-3.326L437.929,371.371"/>
		
			<path id="path7797" inkscape:label="Greene, MO" fill="#FFFFFF" stroke="#000000" stroke-width="0.25" stroke-linejoin="bevel" d="    M448.457,357.387l2.781-0.01l0.061,4.707h0.379l0.09,5.885l-13.883,0.08l-0.586-5.965v-4.729L448.457,357.387"/>
		<path id="path7799" inkscape:label="Taney, MO" fill="#FFFFFF" stroke="#000000" stroke-width="0.25" stroke-linejoin="bevel" d="    M456.037,376.914l3.709-0.02l0.146,10.016l-2.109,0.066l-11.355,0.34l-0.498,0.01l-0.01-10.354L456.037,376.914"/>
		
			<path id="path7801" inkscape:label="Christian, MO" fill="#FFFFFF" stroke="#000000" stroke-width="0.25" stroke-linejoin="bevel" d="    M451.767,367.969l4.158,0.453l0.111,8.492l-10.117,0.059l-0.969,0.008l-0.047-5.688l-6.975,0.078l-0.045-3.322L451.767,367.969"/>
		
			<path id="path7803" inkscape:label="Webster, MO" fill="#FFFFFF" stroke="#000000" stroke-width="0.25" stroke-linejoin="bevel" d="    M456.748,354.955l4.238-0.068l0.102,7.086h0.336l0.047,6.379l-5.545,0.07l-4.158-0.453l-0.09-5.885h-0.379l-0.061-4.707    L456.748,354.955"/>
		
			<path id="path7805" inkscape:label="Dallas, MO" fill="#FFFFFF" stroke="#000000" stroke-width="0.25" stroke-linejoin="bevel" d="    M450.767,341.531l5.484,0.045l0.078,5.684l0.34-0.012l0.078,7.707l-5.51,2.422l-2.781,0.01l-0.498-12.516L450.767,341.531"/>
		
			<path id="path7807" inkscape:label="Hickory, MO" fill="#FFFFFF" stroke="#000000" stroke-width="0.25" stroke-linejoin="bevel" d="    M439.736,336.309l11.051,0.023l-0.02,5.199l-2.809,3.34l-9.77-0.551l0.033-1.422l0.801-1.41h0.645L439.736,336.309"/>
		
			<path id="path7809" inkscape:label="Benton, MO" fill="#FFFFFF" stroke="#000000" stroke-width="0.25" stroke-linejoin="bevel" d="    M439.134,322.031l5.533,0.055l0.012-0.947l2.625-0.031l2.963,0.031l0.014,8.766l0.506,6.428l-11.051-0.023l-0.609-4.35    L439.134,322.031"/>
		
			<path id="path7811" inkscape:label="Pettis, MO" fill="#FFFFFF" stroke="#000000" stroke-width="0.25" stroke-linejoin="bevel" d="    M439.17,308.035l4.854,0.1h5.143l1.127,0.061v7.646l-0.025,5.297l-2.963-0.031l-2.625,0.031l-0.012,0.947l-5.533-0.055v-1.418    l0.035-12.104V308.035"/>
		
			<path id="path7813" inkscape:label="Saline, MO" fill="#FFFFFF" stroke="#000000" stroke-width="0.25" stroke-linejoin="bevel" d="    M448.486,293.445l6.494,4.922l-1.951,5.307l-2.736,4.521l-1.127-0.061h-5.143l-4.854-0.1l0.18-11.379l1.627,1.891l0.156,0.146    l0.338,0.057l0.99-0.248l0.268-0.166l1.41-2.367l2.268-2.027l1.055-0.408L448.486,293.445"/>
		
			<path id="path7815" inkscape:label="Chariton, MO" fill="#FFFFFF" stroke="#000000" stroke-width="0.25" stroke-linejoin="bevel" d="    M454.258,282.977l4.182,2.781l-0.055,9.379l-3.404,3.23l-6.494-4.922l-4.508-7.408l0.195-2.869L454.258,282.977"/>
		<path id="path7817" inkscape:label="Linn, MO" fill="#FFFFFF" stroke="#000000" stroke-width="0.25" stroke-linejoin="bevel" d="    M453.933,272.024l0.213-0.008l0.111,10.961l-10.084,0.191l-2.41,0.066l-0.125-5.725l-0.047-2.854l-0.055-2.125L453.933,272.024"/>
		
			<path id="path7819" inkscape:label="Sullivan, MO" fill="#FFFFFF" stroke="#000000" stroke-width="0.25" stroke-linejoin="bevel" d="    M441.107,261.174l6.842-0.303l5.635-0.172l0.031,1.41l0.318,9.914l-12.396,0.508l-0.336-7.57L441.107,261.174"/>
		
			<path id="path7821" inkscape:label="Putnam, MO" fill="#FFFFFF" stroke="#000000" stroke-width="0.25" stroke-linejoin="bevel" d="    M456.791,253.973l0.445,1.59l-0.16,3.076l0.73,3.301l-4.191,0.17l-0.031-1.41l-5.635,0.172l-6.842,0.303l-0.359-6.4l6.738-0.312    L456.791,253.973"/>
		
			<path id="path7823" inkscape:label="Schuyler, MO" fill="#FFFFFF" stroke="#000000" stroke-width="0.25" stroke-linejoin="bevel" d="    M465.627,253.399l0.324,8.133l-8.145,0.408l-0.73-3.301l0.16-3.076l-0.445-1.59l1.861-0.102L465.627,253.399"/>
		<path id="path7825" inkscape:label="Adair, MO" fill="#FFFFFF" stroke="#000000" stroke-width="0.25" stroke-linejoin="bevel" d="    M465.951,261.531l0.117,1.422l0.391,8.619l-12.312,0.443l-0.213,0.008l-0.318-9.914l4.191-0.17L465.951,261.531"/>
		<path id="path7827" inkscape:label="Macon, MO" fill="#FFFFFF" stroke="#000000" stroke-width="0.25" stroke-linejoin="bevel" d="    M466.459,271.572l1.516,2.703l0.156,11.283h-0.051l-9.641,0.199l-4.182-2.781l-0.111-10.961L466.459,271.572"/>
		
			<path id="path7829" inkscape:label="Randolph, MO" fill="#FFFFFF" stroke="#000000" stroke-width="0.25" stroke-linejoin="bevel" d="    M468.08,285.559l0.104,8.369l0.021,3.293l-2.867,0.031l-6.953-2.115l0.055-9.379L468.08,285.559"/>
		
			<path id="path7831" inkscape:label="Howard, MO" fill="#FFFFFF" stroke="#000000" stroke-width="0.25" stroke-linejoin="bevel" d="    M458.384,295.137l6.953,2.115l-2.832,9.15l-5.656,0.18l-1.545-0.26l-0.266-0.111l-1.256-0.867l-0.199-0.271l-0.555-1.182v-0.217    l1.951-5.307L458.384,295.137"/>
		
			<path id="path7833" inkscape:label="Cooper, MO" fill="#FFFFFF" stroke="#000000" stroke-width="0.25" stroke-linejoin="bevel" d="    M453.029,303.674v0.217l0.555,1.182l0.199,0.271l1.256,0.867l0.266,0.111l1.545,0.26l5.656-0.18l1.531,1.533l-2,5.521    l-0.488,1.441l-0.191,0.709l-3.188,0.293l-2.367,0.068l-5.51-0.127v-7.646L453.029,303.674"/>
		<path id="path7835" inkscape:label="Boone, MO" fill="#FFFFFF" stroke="#000000" stroke-width="0.25" stroke-linejoin="bevel" d="    M468.205,297.221l5.207,0.01l0.102,5.711l-0.371,0.014l-0.135,0.303l-0.482,4.699l-0.137,4.744l-1.273,2.229l0.188,1.793    l-4.459-2.951l-2.807-5.836l-1.531-1.533l2.832-9.15L468.205,297.221"/>
		<path id="path7837" inkscape:label="Cole, MO" fill="#FFFFFF" stroke="#000000" stroke-width="0.25" stroke-linejoin="bevel" d="    M466.843,313.772l4.459,2.951l5.402,2.127l-4.34,7.836l-1.398,0.471l-3.975-0.449l0.025-2.727h-2.301L466.843,313.772"/>
		
			<path id="path7839" inkscape:label="Moniteau, MO" fill="#FFFFFF" stroke="#000000" stroke-width="0.25" stroke-linejoin="bevel" d="    M464.037,307.936l2.807,5.836l-2.127,10.209l-3.271,0.023l-5.611-5.207l-0.031-2.828l2.367-0.068l3.188-0.293l0.191-0.709    l0.488-1.441L464.037,307.936"/>
		
			<path id="path7841" inkscape:label="Morgan, MO" fill="#FFFFFF" stroke="#000000" stroke-width="0.25" stroke-linejoin="bevel" d="    M450.293,315.842l5.51,0.127l0.031,2.828l5.611,5.207l-1.529,6.836l-1.703,0.881l-4.992,0.156l-2.939-1.973l-0.014-8.766    L450.293,315.842"/>
		
			<path id="path7843" inkscape:label="Miller, MO" fill="#FFFFFF" stroke="#000000" stroke-width="0.25" stroke-linejoin="bevel" d="    M464.717,323.981h2.301l-0.025,2.727l3.975,0.449l1.398-0.471l0.023,1.408l0.121,4.246h0.408l0.09,4.711l-5.566,0.059    l-2.264,0.043l-1.455-0.914l-0.471-0.463l-0.707-1.412l-0.039-0.932l-0.238-1.002l-0.947-1.342l-1.404-0.248l1.529-6.836    L464.717,323.981"/>
		
			<path id="path7845" inkscape:label="Camden, MO" fill="#FFFFFF" stroke="#000000" stroke-width="0.25" stroke-linejoin="bevel" d="    M459.916,330.84l1.404,0.248l0.947,1.342l0.238,1.002l0.039,0.932l0.707,1.412l0.471,0.463l1.455,0.914l2.264-0.043l0.123,5.258    l-1.477,1.094l-1.746,0.889l-0.234,0.059l-0.396-0.156l-0.947-1.094l-0.393-0.756l-0.182-0.734l0.047-0.066l-0.035-0.113    l-5.949,0.088l-5.484-0.045l0.02-5.199l-0.506-6.428l2.939,1.973l4.992-0.156L459.916,330.84"/>
		
			<path id="path7847" inkscape:label="Pulaski, MO" fill="#FFFFFF" stroke="#000000" stroke-width="0.25" stroke-linejoin="bevel" d="    M473.008,337.051l4.146,0.014l0.348,13.256l-5.574,0.162l-0.047-1.42l-4.244-1.973l-0.072-4.723l-0.123-5.258L473.008,337.051"/>
		
			<path id="path7849" inkscape:label="Laclede, MO" fill="#FFFFFF" stroke="#000000" stroke-width="0.25" stroke-linejoin="bevel" d="    M456.252,341.576l5.949-0.088l0.035,0.113l-0.047,0.066l0.182,0.734l0.393,0.756l0.947,1.094l0.396,0.156l0.234-0.059l1.746-0.889    l1.477-1.094l0.072,4.723l4.244,1.973l0.047,1.42l0.098,4.279l-11.039,0.125l-4.238,0.068l-0.078-7.707l-0.34,0.012    L456.252,341.576"/>
		
			<path id="path7851" inkscape:label="Wright, MO" fill="#FFFFFF" stroke="#000000" stroke-width="0.25" stroke-linejoin="bevel" d="    M460.986,354.887l11.039-0.125l0.26,7.078l0.17,1.182l0.123,5.162l-11.107,0.168l-0.047-6.379h-0.336L460.986,354.887"/>
		
			<path id="path7853" inkscape:label="Douglas, MO" fill="#FFFFFF" stroke="#000000" stroke-width="0.25" stroke-linejoin="bevel" d="    M476.724,368.113l-0.246,8.541l-16.732,0.24l-3.709,0.02l-0.111-8.492l5.545-0.07l11.107-0.168L476.724,368.113"/>
		<path id="path7855" inkscape:label="Ozark, MO" fill="#FFFFFF" stroke="#000000" stroke-width="0.25" stroke-linejoin="bevel" d="    M459.746,376.895l16.732-0.24l0.18,9.59l-0.77,0.049l-9.744,0.402l-6.252,0.215L459.746,376.895"/>
		
			<path id="path7857" inkscape:label="Howell, MO" fill="#FFFFFF" stroke="#000000" stroke-width="0.25" stroke-linejoin="bevel" d="    M487.791,367.877l0.184,5.205l0.098,3.279l-0.045,5.928l0.156,3.438l-11.525,0.518l-0.18-9.59l0.246-8.541l2.762-0.086    l3.176,0.031L487.791,367.877"/>
		<path id="path7859" inkscape:label="Texas, MO" fill="#FFFFFF" stroke="#000000" stroke-width="0.25" stroke-linejoin="bevel" d="    M477.502,350.32l5.59-0.121l1.375-0.057l0.25,5.672l2.744-0.084l0.33,12.146l-5.129,0.182l-3.176-0.031l-2.762,0.086l-4.146,0.07    l-0.123-5.162l-0.17-1.182l-0.26-7.078l-0.098-4.279L477.502,350.32"/>
		
			<path id="path7861" inkscape:label="Phelps, MO" fill="#FFFFFF" stroke="#000000" stroke-width="0.25" stroke-linejoin="bevel" d="    M486.791,331.99l2.408-0.08l0.695,11.801l-7.006,0.234l0.203,6.254l-5.59,0.121l-0.348-13.256l2.039-0.959l1.07-0.496l3.027-0.18    l3.598-0.104L486.791,331.99"/>
		
			<path id="path7863" inkscape:label="Maries, MO" fill="#FFFFFF" stroke="#000000" stroke-width="0.25" stroke-linejoin="bevel" d="    M486.224,327.615l0.566,4.375l0.098,3.336l-3.598,0.104l-3.027,0.18l-1.07,0.496l-2.039,0.959l-4.146-0.014l-0.09-4.711h-0.408    l-0.121-4.246l4.305-0.059l3.523-0.189L486.224,327.615"/>
		<path id="path7865" inkscape:label="Osage, MO" fill="#FFFFFF" stroke="#000000" stroke-width="0.25" stroke-linejoin="bevel" d="    M485.547,314.156l0.17-0.023l0.508,13.482l-6.008,0.23l-3.523,0.189l-4.305,0.059l-0.023-1.408l4.34-7.836l0.99-0.738l1.994-1.895    l0.182-0.33l0.182-0.201l0.221-0.145l3.248-1.385l0.809-0.094L485.547,314.156"/>
		
			<path id="path7867" inkscape:label="Callaway, MO" fill="#FFFFFF" stroke="#000000" stroke-width="0.25" stroke-linejoin="bevel" d="    M473.513,302.942l11.832-0.348l0.201,11.562l-1.217-0.094l-0.809,0.094l-3.248,1.385l-0.221,0.145l-0.182,0.201l-0.182,0.33    l-1.994,1.895l-0.99,0.738l-5.402-2.127l-0.188-1.793l1.273-2.229l0.137-4.744l0.482-4.699l0.135-0.303L473.513,302.942"/>
		
			<path id="path7869" inkscape:label="Monroe, MO" fill="#FFFFFF" stroke="#000000" stroke-width="0.25" stroke-linejoin="bevel" d="    M482.461,283.246l0.396,10.344l-14.674,0.338l-0.104-8.369h0.051l2.781-0.068l-0.043-1.916l8.336-0.203L482.461,283.246"/>
		
			<path id="path7871" inkscape:label="Shelby, MO" fill="#FFFFFF" stroke="#000000" stroke-width="0.25" stroke-linejoin="bevel" d="    M476.197,274.029l2.76-0.078l0.248,9.42l-8.336,0.203l0.043,1.916l-2.781,0.068l-0.156-11.283L476.197,274.029"/>
		<path id="path7873" inkscape:label="Knox, MO" fill="#FFFFFF" stroke="#000000" stroke-width="0.25" stroke-linejoin="bevel" d="    M466.068,262.953l9.713-0.324l0.045,1.42l0.371,9.98l-8.223,0.246l-1.516-2.703L466.068,262.953"/>
		
			<path id="path7875" inkscape:label="Scotland, MO" fill="#FFFFFF" stroke="#000000" stroke-width="0.25" stroke-linejoin="bevel" d="    M475.519,252.723l0.262,9.906l-9.713,0.324l-0.117-1.422l-0.324-8.133l4.146-0.271L475.519,252.723"/>
		<path id="path7877" inkscape:label="Clark, MO" fill="#FFFFFF" stroke="#000000" stroke-width="0.25" stroke-linejoin="bevel" d="    M481.041,252.707l0.508,0.318l1.928,1.455l0.057,0.213l-0.082,0.654l0.092,0.225l2.453,3.021l1.021,0.822l1.596,0.115    l-1.803,4.291l-10.984,0.227l-0.045-1.42l-0.262-9.906L481.041,252.707"/>
		<path id="path7879" inkscape:label="Lewis, MO" fill="#FFFFFF" stroke="#000000" stroke-width="0.25" stroke-linejoin="bevel" d="    M486.81,263.822l-0.148,1.578l1.727,8.215l-9.432,0.336l-2.76,0.078l-0.371-9.98L486.81,263.822"/>
		
			<path id="path7881" inkscape:label="Marion, MO" fill="#FFFFFF" stroke="#000000" stroke-width="0.25" stroke-linejoin="bevel" d="    M488.388,273.615l2.457,5.957l1.461,2.324l-9.846,1.35l-3.256,0.125l-0.248-9.42L488.388,273.615"/>
		<path id="path7883" inkscape:label="Ralls, MO" fill="#FFFFFF" stroke="#000000" stroke-width="0.25" stroke-linejoin="bevel" d="    M482.461,283.246l9.846-1.35l3.475,2.643l-0.631,0.037l-6.1,5.102l0.746,4.264l-3.268,0.01l-3.672,0.121v-0.482L482.461,283.246"/>
		
			<path id="path7885" inkscape:label="Audrain, MO" fill="#FFFFFF" stroke="#000000" stroke-width="0.25" stroke-linejoin="bevel" d="    M468.183,293.928l14.674-0.338v0.482l3.672-0.121l3.268-0.01l1.004,5.676l-5.455,2.977l-11.832,0.348l-0.102-5.711l-5.207-0.01    L468.183,293.928"/>
		
			<path id="path7887" inkscape:label="Montgomery, MO" fill="#FFFFFF" stroke="#000000" stroke-width="0.25" stroke-linejoin="bevel" d="    M494.494,299.531l0.135,4.773l0.225,4.836l-3.75,0.133l0.135,4.406l-5.521,0.453l-0.17,0.023l-0.201-11.562l5.455-2.977    L494.494,299.531"/>
		<path id="path7889" inkscape:label="Pike, MO" fill="#FFFFFF" stroke="#000000" stroke-width="0.25" stroke-linejoin="bevel" d="    M495.781,284.539l5.938,6.166l6.049,5.375l-7.053,0.371l-4.453,0.137l0.092,2.875l-1.859,0.068l-3.693,0.086l-1.004-5.676    l-0.746-4.264l6.1-5.102L495.781,284.539"/>
		
			<path id="path7891" inkscape:label="Lincoln, MO" fill="#FFFFFF" stroke="#000000" stroke-width="0.25" stroke-linejoin="bevel" d="    M507.767,296.08l1.16,3.955l-0.021,0.406l-0.676,1.047l-0.025,0.102l0.062,0.227v0.012l1.342,3.592l-7.168,2.447l-2.627,0.078    l-1.871-1.838l-1.42-1.848l-1.895,0.045l-0.135-4.773l1.859-0.068l-0.092-2.875l4.453-0.137L507.767,296.08"/>
		
			<path id="path7893" inkscape:label="Warren, MO" fill="#FFFFFF" stroke="#000000" stroke-width="0.25" stroke-linejoin="bevel" d="    M494.629,304.305l1.895-0.045l1.42,1.848l1.871,1.838l2.627-0.078l0.416,10.5l-6.73-2.715l-0.156-0.305l-2.094-1.703l-0.283-0.029    l-1.104,0.348l-1.252-0.283l-0.135-4.406l3.75-0.133L494.629,304.305"/>
		
			<path id="path7895" inkscape:label="Gasconage, MO" fill="#FFFFFF" stroke="#000000" stroke-width="0.25" stroke-linejoin="bevel" d="    M492.49,313.963l0.314,6.16l0.359,5.771l0.148,3.955l-4.113,2.061l-2.408,0.08l-0.566-4.375l-0.508-13.482l5.521-0.453    L492.49,313.963"/>
		
			<path id="path7897" inkscape:label="Crawford, MO" fill="#FFFFFF" stroke="#000000" stroke-width="0.25" stroke-linejoin="bevel" d="    M493.312,329.85l6.83-0.16l0.672,15.068l-1.277,1.449l-3.98,0.115l-0.082-2.826l-5.58,0.215l-0.695-11.801L493.312,329.85"/>
		<path id="path7899" inkscape:label="Dent, MO" fill="#FFFFFF" stroke="#000000" stroke-width="0.25" stroke-linejoin="bevel" d="    M499.537,346.207l0.141,3.553l-4,0.045l0.104,2.852l2.611-0.023l0.123,2.809l-11.055,0.289l-2.744,0.084l-0.25-5.672l-1.375,0.057    l-0.203-6.254l7.006-0.234l5.58-0.215l0.082,2.826L499.537,346.207"/>
		
			<path id="path7901" inkscape:label="Shannon, MO" fill="#FFFFFF" stroke="#000000" stroke-width="0.25" stroke-linejoin="bevel" d="    M487.461,355.731l11.055-0.289l0.928-0.023l2.691,7.66l1.859,2.48l-2.334,0.418l-2.736,0.156l0.178,6.566l-11.127,0.383    l-0.184-5.205L487.461,355.731"/>
		
			<path id="path7903" inkscape:label="Oregon, MO" fill="#FFFFFF" stroke="#000000" stroke-width="0.25" stroke-linejoin="bevel" d="    M487.974,373.082l11.127-0.383l2.842,1.816l0.273,10.59l-7.215,0.385l-1.102,0.031l-5.717,0.205l-0.156-3.438l0.045-5.928    L487.974,373.082"/>
		
			<path id="path7905" inkscape:label="Ripley, MO" fill="#FFFFFF" stroke="#000000" stroke-width="0.25" stroke-linejoin="bevel" d="    M501.943,374.516l1.852-0.055l3.984,0.098l5.781-0.268l2.795,10.029l-5.354,0.291l-8.785,0.494L501.943,374.516"/>
		
			<path id="path7907" inkscape:label="Carter, MO" fill="#FFFFFF" stroke="#000000" stroke-width="0.25" stroke-linejoin="bevel" d="    M503.994,365.559l6.152,1.148l2.793,3.875l0.621,3.709l-5.781,0.268l-3.984-0.098l-1.852,0.055l-2.842-1.816l-0.178-6.566    l2.736-0.156L503.994,365.559"/>
		
			<path id="path7909" inkscape:label="Reynolds, MO" fill="#FFFFFF" stroke="#000000" stroke-width="0.25" stroke-linejoin="bevel" d="    M499.677,349.76l4.926-0.768l4.83-0.234l0.248,6.098l0.734,4.684l0.453-0.059l0.113,1.424l0.031,1.971l-0.969,1.623l0.102,2.209    l-6.152-1.148l-1.859-2.48l-2.691-7.66l-0.928,0.023l-0.123-2.809l-2.611,0.023l-0.104-2.852L499.677,349.76"/>
		<path id="path7911" inkscape:label="Iron, MO" fill="#FFFFFF" stroke="#000000" stroke-width="0.25" stroke-linejoin="bevel" d="    M512.318,344.305l2.955,2.809l0.236,10.59l-4.641,1.777l-0.453,0.059l-0.734-4.684l-0.248-6.098l-4.83,0.234l-4.926,0.768    l-0.141-3.553l1.277-1.449L512.318,344.305"/>
		
			<path id="path7913" inkscape:label="Washington, MO" fill="#FFFFFF" stroke="#000000" stroke-width="0.25" stroke-linejoin="bevel" d="    M508.072,329.264l3.754,3.943l0.492,11.098l-11.504,0.453l-0.672-15.068L508.072,329.264"/>
		
			<path id="path7915" inkscape:label="Franklin, MO" fill="#FFFFFF" stroke="#000000" stroke-width="0.25" stroke-linejoin="bevel" d="    M502.857,318.367l5.633-3.287l0.211,5.607l-0.629,8.576l-7.93,0.426l-6.83,0.16l-0.148-3.955l-0.359-5.771l-0.314-6.16    l1.104-0.348l0.283,0.029l2.094,1.703l0.156,0.305L502.857,318.367"/>
		
			<path id="path7917" inkscape:label="St. Louis, MO" fill="#FFFFFF" stroke="#000000" stroke-width="0.25" stroke-linejoin="bevel" d="    M521.685,310.996l0.514,2.594l-1.652,4.281l-1.035-0.539l-0.318-1.717l-0.395-2.533l0.621-1.283l1.016-0.766L521.685,310.996"/>
		
			<path id="path7919" inkscape:label="St. Charles, MO" fill="#FFFFFF" stroke="#000000" stroke-width="0.25" stroke-linejoin="bevel" d="    M514.89,304.026l4.436,1.08l0.645,0.195l0.629,0.303l0.475,0.279l2.447,1.477l0.102,0.182l0.021,0.189l-0.09,0.746l-0.053,0.305    l-0.24-0.473l-0.404-0.262l-0.43,0.033l-0.605,0.408l-0.43-0.16l-1.543-0.926l-0.25-0.258l-1.801,0.158l-0.045,0.385l-0.195,0.438    l-0.156,0.25l-0.279,0.234l-0.373,0.033l-0.891-0.166h-0.268l-0.184,0.078l-0.168,0.188l-0.586,1.074l-1.266,2.727l0.023,0.369    l-0.164,0.316l-0.406,0.229l-0.375,0.033l-2.152-0.127l-0.178,0.061l-0.33,0.248l-0.732,1.146l-0.584,0.262l-5.633,3.287    l-0.416-10.5l7.168-2.447L514.89,304.026"/>
		
			<path id="path7921" inkscape:label="St. Louis Co., MO" fill="#FFFFFF" stroke="#000000" stroke-width="0.25" stroke-linejoin="bevel" d="    M523.502,308.781l-1.816,2.215l-1.25,0.037l-1.016,0.766l-0.621,1.283l0.395,2.533l0.318,1.717l1.035,0.539l-0.111,0.396    l-1.738,4.518l-0.191-0.732l-1.586-2.963l-4.645,0.258l-3.291,0.822l-0.283,0.518l-0.211-5.607l0.584-0.262l0.732-1.146    l0.33-0.248l0.178-0.061l2.152,0.127l0.375-0.033l0.406-0.229l0.164-0.316l-0.023-0.369l1.266-2.727l0.586-1.074l0.168-0.188    l0.184-0.078h0.268l0.891,0.166l0.373-0.033l0.279-0.234l0.156-0.25l0.195-0.438l0.045-0.385l1.801-0.158l0.25,0.258l1.543,0.926    l0.43,0.16l0.605-0.408l0.43-0.033l0.404,0.262L523.502,308.781"/>
		
			<path id="path7923" inkscape:label="Jefferson, MO" fill="#FFFFFF" stroke="#000000" stroke-width="0.25" stroke-linejoin="bevel" d="    M508.701,320.688l0.283-0.518l3.291-0.822l4.645-0.258l1.586,2.963l0.191,0.732l-0.07,0.09l-0.111,0.227l-0.365,1.25l-0.051,0.133    l-0.023,0.328l0.049,1.354l0.338,1.449l0.293,0.723l0.463,0.633l0.078,0.113l0.066,0.068l2.121,2.062l-3.955,2.781l-5.703-0.789    l-3.754-3.943L508.701,320.688"/>
		
			<path id="path7925" inkscape:label="St. Francois, MO" fill="#FFFFFF" stroke="#000000" stroke-width="0.25" stroke-linejoin="bevel" d="    M511.826,333.207l5.703,0.789l2.453,1.824l-3.232,3.543l2.059,1.988l4.883,4.406l1.104-1.045l1.156,0.857l-0.852,1.012    l-9.826,0.531l-2.955-2.809L511.826,333.207"/>
		
			<path id="path7927" inkscape:label="Sainte Genevieve, MO" fill="#FFFFFF" stroke="#000000" stroke-width="0.25" stroke-linejoin="bevel" d="    M522.763,332.174l7.133,6.512l-3.945,6.885l-1.156-0.857l-1.104,1.045l-4.883-4.406l-2.059-1.988l3.232-3.543l-2.453-1.824    l3.955-2.781L522.763,332.174"/>
		
			<path id="path7929" inkscape:label="Madison, MO" fill="#FFFFFF" stroke="#000000" stroke-width="0.25" stroke-linejoin="bevel" d="    M525.099,346.582l0.09,1.445l0.326,1.801l0.271,7.451l-1.836,0.014l-8.441,0.41l-0.236-10.59L525.099,346.582"/>
		<path id="path7931" inkscape:label="Wayne, MO" fill="#FFFFFF" stroke="#000000" stroke-width="0.25" stroke-linejoin="bevel" d="    M515.51,357.703l8.441-0.41l0.312,7.42l2.875-0.158l0.066,1.455l-3.527,4.088l-10.738,0.484l-2.793-3.875l-0.102-2.209    l0.969-1.623l-0.031-1.971l-0.113-1.424L515.51,357.703"/>
		
			<path id="path7933" inkscape:label="Butler, MO" fill="#FFFFFF" stroke="#000000" stroke-width="0.25" stroke-linejoin="bevel" d="    M523.677,370.098l1.254,3.303l0.887,1.959l0.172,0.07l0.234,0.168l0.834,1.598l0.316,1.148l-0.068,0.633l-0.227,0.393    l-1.586,4.432l-9.139,0.52l-2.795-10.029l-0.621-3.709L523.677,370.098"/>
		
			<path id="path7935" inkscape:label="Dunklin, MO" fill="#FFFFFF" stroke="#000000" stroke-width="0.25" stroke-linejoin="bevel" d="    M531.933,379.125l0.443,7.795l0.855,12.633l-8.516,0.607l-2.061,0.137l3.984-6.932l2.818-2.479l0.18-0.281l0.271-0.742    l-0.17-2.559l-0.248-0.338l-2.297-3.244l-1.014,0.031l-0.688,0.047l1.586-4.432L531.933,379.125"/>
		
			<path id="path7937" inkscape:label="Stoddard, MO" fill="#FFFFFF" stroke="#000000" stroke-width="0.25" stroke-linejoin="bevel" d="    M533.271,362.854l2.566-0.158l0.492,2.988l0.518,0.695l0.408,0.654l0.551,1.342l0.396,1.102l0.088,1.738l-0.322,0.023l0.596,7.512    l-6.631,0.375l-4.854,0.244l0.227-0.393l0.068-0.633l-0.316-1.148l-0.834-1.598l-0.234-0.168l-0.172-0.07l-0.887-1.959    l-1.254-3.303l3.527-4.088l2.365-0.125l1.49-0.553l-0.162-2.367L533.271,362.854"/>
		
			<path id="path7939" inkscape:label="Bollinger, MO" fill="#FFFFFF" stroke="#000000" stroke-width="0.25" stroke-linejoin="bevel" d="    M532.412,347.504l0.859,15.35l-2.373,0.111l0.162,2.367l-1.49,0.553l-2.365,0.125l-0.066-1.455l-2.875,0.158l-0.312-7.42    l1.836-0.014l-0.271-7.451l-0.326-1.801L532.412,347.504"/>
		<path id="path7941" inkscape:label="Perry, MO" fill="#FFFFFF" stroke="#000000" stroke-width="0.25" stroke-linejoin="bevel" d="    M529.896,338.686l6.809,1.889l4.369,7.238v0.189l-8.662-0.498l-7.223,0.523l-0.09-1.445l0.852-1.012L529.896,338.686"/>
		
			<path id="path7943" inkscape:label="Cape Girardeau, MO" fill="#FFFFFF" stroke="#000000" stroke-width="0.25" stroke-linejoin="bevel" d="    M532.412,347.504l8.662,0.498l0.025,0.293l0.158,0.645l0.01,0.01l0.719,1.344l0.475,0.705l0.666,0.656l0.316,0.393l0.404,0.914    l0.01,0.023l0.012,0.055l0.145,0.541l0.016,0.035l-0.016,0.041l-0.098,0.994l-0.102,0.305l-0.02,0.033l-0.027,0.02l-0.023,0.035    l-0.293,0.152l-0.922,0.246l0.043,2.826l-6.734,4.428l-2.566,0.158L532.412,347.504"/>
		<path id="path7945" inkscape:label="Scott, MO" fill="#FFFFFF" stroke="#000000" stroke-width="0.25" stroke-linejoin="bevel" d="    M542.572,358.268l0.645,0.924l1.566,2.93l0.9,2.207l1.701,1.389l-4.719,4.877l-4.375,0.621l-0.088-1.738l-0.396-1.102    l-0.551-1.342l-0.408-0.654l-0.518-0.695l-0.492-2.988L542.572,358.268"/>
		
			<path id="path7947" inkscape:label="Mississippi, MO" fill="#FFFFFF" stroke="#000000" stroke-width="0.25" stroke-linejoin="bevel" d="    M547.385,365.717l4.902,0.527l0.914,1.174l-0.965,3.221l-0.016,0.012l-0.711,0.404l-0.012,0.014v0.742l0.012,0.012l1.477,0.779    l-0.992,4.469l-3.877,0.871l-5.451-7.348L547.385,365.717"/>
	</g>
	<path id="path7197" sodipodi:nodetypes="cccccccccccccccc" fill="none" stroke="#000000" stroke-width="0.5" d="M360.941,223.598   v-3.719l-4.648-1.113l-4.463-7.064l-3.346-3.533l0.932-2.973l3.158-3.533l1.117-1.301l-0.371-1.859l-2.232-2.602l-1.115,1.486   h-1.117l-3.715-2.418l-1.859-1.672l-0.371-0.371c-53.629-0.566-109.328-2.164-165.26-4.834"/>
	<path id="path6315" sodipodi:nodetypes="ccc" fill="none" stroke="#000000" stroke-width="0.5" d="M360.963,223.393l0.789,67.039   c-62.195,0.658-121.803-1.258-189.809-4.471l6.08-98.072"/>
	
		<path id="path8086" sodipodi:nodetypes="cccccccccccccccccccccccccccccccccccccccccccccccccccccccccccccccccccccccccc" fill="none" stroke="#000000" stroke-width="0.5" d="   M361.705,290.483l0.354,16.377l114.75-4.379l2.566,3.549l0.156,2.605l-0.396,1.064l-2.92,2.445l-3.906,6.906l16.455-1.184   l4.104-11.48l-0.158-4.895l3.078-0.316l2.012-4.535l3.867-0.832l0.947-4.496l-1.42-0.752l-0.039-0.709l0.709-0.514l0.988-3.197   L501.902,285l-4.891-0.555l-1.697-1.422l-1.225-2.801l-1.145-2.289l-0.672-0.867l-0.078-2.842l1.186-0.393l0.314-1.305   l-0.275-1.223l-0.633-0.906l-1.26-1.621l-0.633-1.18l-0.236-1.146l-4.303-7.18l-6.863-1.895l-8.445-7.459l-2.684-2.881   l-0.551-2.051l-0.078-1.816l4.141-10.889l-0.553-2.605l1.895-2.248l0.078-1.303l-3.627-2.092l-5.133-1.264l-5.289,1.383   l-1.42-3.867l0.713-1.105l0.039-0.395l-1.145-4.025l-6.512-5.604l-5.484-5.879l-3.512-2.684l-1.418-2.209l-2.447-6.076   l-1.816-8.207l0.236-1.58l1.736-4.34l-1.557-0.029l-1.061-0.92l-2.455-3.012v-1.006l-2.428-1.842l-5.58,0.113   c-30.645,2.193-61.703,3.635-92.914,2.76l1.311,1.982l0.336-0.641l0.92,0.752l-0.529,1.088l-0.336,0.225l1.812,4.52l1.73,1.674   v0.865l5.525,7.924"/>
</g>
<path fill="#FF0013" d="M94.334,19.961v-0.848l-0.291-0.027l-0.146-0.408l0.377-1.811h0.408l0.084-0.463l1.738,0.086l0.033,0.584  l2.488,0.059l0.143,0.494l1.506-0.029l0.057,0.264h0.264l0.115,0.088l0.201-0.088l0.176,0.232h0.434l0.088,0.611l0.232,0.119  l-0.35,0.115l-0.027,0.32l-0.232,0.203l0.086,0.471l-0.314,0.812h-0.611l-0.09,0.41l-0.4,0.086l0.027,0.422l1.027,0.031l0.479,0.496  l0.129-0.354l0.318-0.143l0.566-0.031l0.258,0.818l-0.98,1.195l-0.334,0.189l-0.453-0.162l0.064,0.484l-0.293,0.189l0.041,0.32  l-0.186,0.029l-0.072,0.568l0.391-0.045l-0.043,0.803l0.969,0.51l-0.158,0.379l-0.986,0.1l-0.041,1.459l-0.479,0.51l1.477,0.102  l-0.031-1.91l0.422-0.145l0.043-0.174l0.855-0.088l0.088,2.42l-0.48-0.104l-0.287,0.293l0.188,0.365l-1.002,0.014l-0.041,0.904  l-0.316,0.029l0.027-0.291l-0.289,0.174l-0.117,0.25v0.273l0.188,0.102l0.043,0.803l0.971,0.162l-0.016,0.83l-1.502-0.086  l0.016-1.387l0.113-0.174l-0.113-0.482l-1.668-0.072l-0.129,1.383l0.852,0.061l-0.07,0.697h-0.203l-0.102,0.297l-0.52,0.242  l0.059-0.596l-1.117-0.057l0.016-8.631l0.141-1.443l-0.07-0.918l-1.404-0.045v-1.035l0.607-0.189l0.174,0.029v-0.26l-0.463-0.135  l-0.289,0.119l-0.102,0.379l-0.377,0.246l-0.088-1.031l-0.562,0.07l-1.014,0.059L94.334,19.961z M99.82,21.535l-0.057-1.125  l-1.332-0.043l-0.072,1.793l0.156,0.047l0.061-0.643L99.82,21.535z"/>
</svg>