<svg xmlns="http://www.w3.org/2000/svg" viewBox="0 0 46 52" width="46" height="52" role="img" aria-hidden="true">
  <title>KC Pest Experts mark</title>
  <polygon
    fill="none"
    stroke="#213d81"
    stroke-width="2.35"
    stroke-linejoin="round"
    stroke-linecap="round"
    points="23,0 45,13 45,39 21,51 0,39 0,12"
  />
  <path fill="#2c89c9" stroke="#213d81" stroke-width="1.15" stroke-linejoin="round" d="M15,26 L16,31 L22,37 L27,33 L30,27 Z" />
  <path fill="#2c89c9" stroke="#213d81" stroke-width="1.15" stroke-linejoin="round" d="M26,22 L22,18 L18,23 Z" />
  <path fill="#213d81" d="M17,24.5 L29,24.5 L29,26.2 L17,26.2 Z" />
  <g fill="none" stroke="#213d81" stroke-width="2.05" stroke-linecap="round" stroke-linejoin="round">
    <path d="M25,17 C31,9 37,5 41,3" />
    <path d="M31,26 C36,24 40,26 44,26" />
    <path d="M25,34 C31,42 37,46 41,48" />
  </g>
  <g transform="translate(46,0) scale(-1,1)">
    <g fill="none" stroke="#213d81" stroke-width="2.05" stroke-linecap="round" stroke-linejoin="round">
      <path d="M25,17 C31,9 37,5 41,3" />
      <path d="M31,26 C36,24 40,26 44,26" />
      <path d="M25,34 C31,42 37,46 41,48" />
    </g>
  </g>
</svg>
