<svg xmlns="http://www.w3.org/2000/svg" viewBox="0 0 46 52" width="46" height="52" role="img" aria-hidden="true">
  <title>KC Pest Experts mark</title>
  <path
    fill="#2c89c9"
    d="M22.00 18.00L19.00 21.00L18.00 25.00L15.00 26.00L15.00 28.00L19.00 35.00L23.00 37.00L30.00 27.00L26.00 25.00L26.00 22.00Z"
  />
  <path
    fill="#213d81"
    fill-rule="evenodd"
    d="M21.00 0.00L17.00 4.00L0.00 13.00L0.00 38.00L20.00 49.00L21.00 51.00L24.00 51.00L28.00 47.00L45.00 38.00L45.00 13.00L26.00 3.00L24.00 0.00Z M21.00 2.00L27.00 4.00L43.00 14.00L43.00 37.00L24.00 49.00L21.00 49.00L5.00 40.00L2.00 37.00L2.00 14.00Z M12.00 12.00L7.00 20.00L9.00 26.00L6.00 28.00L10.00 38.00L13.00 37.00L15.00 39.00L16.00 37.00L18.00 37.00L22.00 40.00L27.00 36.00L30.00 37.00L29.00 40.00L31.00 38.00L34.00 38.00L38.00 31.00L38.00 28.00L36.00 26.00L36.00 23.00L38.00 21.00L35.00 15.00L33.00 13.00L30.00 14.00L27.00 10.00L31.00 16.00L30.00 20.00L27.00 20.00L23.00 16.00L20.00 17.00L17.00 20.00L14.00 20.00L13.00 17.00L18.00 10.00L15.00 13.00Z M14.00 26.00L15.00 25.00L29.00 25.00L30.00 26.00L30.00 30.00L24.00 37.00L21.00 37.00L15.00 31.00Z M19.00 20.00L21.00 18.00L23.00 18.00L26.00 20.00L26.00 23.00L25.00 24.00L21.00 24.00L19.00 22.00Z M8.00 18.00L11.00 17.00L12.00 20.00L9.00 21.00Z"
  />
</svg>
